<?xml version="1.0" encoding="utf-8"?>
<!-- Generator: Adobe Illustrator 19.2.1, SVG Export Plug-In . SVG Version: 6.00 Build 0)  -->
<svg version="1.1" id="Layer_1" xmlns="http://www.w3.org/2000/svg" xmlns:xlink="http://www.w3.org/1999/xlink" x="0px" y="0px"
	 viewBox="0 0 74.5 100" style="enable-background:new 0 0 74.5 100;" xml:space="preserve">
<g>
	<path d="M0,72c3.9-3.7,7.8-7.4,12.1-11.3c3.5,5.5,3.4,9.9-2.1,13.1c12.8,17.5,40.9,17.6,55.4,0.1c-5.3-3.1-5.3-7.6-2.1-13.6
		c3.7,3.8,7.6,7.3,10.7,11.4c0.9,1.2,0.5,5-0.7,6.1c-5.2,4.7-10.6,9.5-16.7,13c-4,2.3-6,4.7-5.6,9.2c-8.7,0-17.3,0-26,0
		c-1.2-2.6-1.7-6.6-3.7-7.5C12.7,88.8,6,82.9,0,76C0,74.7,0,73.3,0,72z"/>
	<path d="M46,0c0.3,2.7,0.7,5.5,1,8.6c-6.2,0-12.4,0-19.1,0c0.7-2.9,1.4-5.7,2-8.6C35.3,0,40.7,0,46,0z"/>
	<path d="M64,0c1.6,2.8,3.1,5.6,4.9,8.6c-5.4,0-10.6,0-16.5,0C51.6,5.9,50.8,2.9,50,0C54.7,0,59.3,0,64,0z"/>
	<path d="M26,0c-3.5,8.9-3.5,8.9-13.4,8.9c-2,0-3.9,0-6.7,0C8.2,5.5,10.1,2.8,12,0C16.7,0,21.3,0,26,0z"/>
	<path d="M69.9,12.7C65.2,33.6,60.6,53.8,56.3,74c-0.8,3.5-2.4,5.1-6.2,6c1.8-5.6,0.9-10.4-2.4-14.8c-0.5-0.6-0.1-1.9,0-2.9
		C49.1,47.2,50.7,32,52,16.8c0.3-3,1.2-4.2,4.1-4.1C60.5,12.8,64.8,12.7,69.9,12.7z"/>
	<path d="M24.1,80.8c-1.6-2-4.2-3.8-4.7-6C14.8,55.4,10.6,36,6.3,16.6c-0.2-0.9,0-2,0-3.4c5.3,0,10.7,0,16.5,0
		c1.1,10.1,2.1,20.1,3.1,30.2c0.4,3.8,0.6,7.6,1.1,11.4c0.7,5.4,1.7,10.6-1.7,15.8c-1.4,2.2-0.2,6-0.2,9.1
		C24.7,80,24.4,80.4,24.1,80.8z"/>
	<path d="M27.8,12.9c6.9,0,12.9,0,19.6,0c-1.1,16.4-2.2,32.5-3.3,48.6c-4.7,0-8.7,0-13,0C30.1,45.9,29,29.7,27.8,12.9z"/>
	<path d="M37.8,65.1c5,0.1,9.1,4.3,9,9.3c-0.1,5.1-4.2,8.9-9.5,8.8c-5.1-0.1-8.7-3.8-8.6-8.9C28.8,69.1,32.8,65.1,37.8,65.1z"/>
</g>
</svg>
